# xmcd
#
# Track frame offsets:
#	150
#	15822
#	33197
#	49317
#	68712
#	81317
#	103422
#	125660
#	139347
#	168057
#	178185
#	194620
#	213467
#	233392
#	253907
#	277782
#	293245
#	305822
#
# Disc length: 4315 seconds
#
# Revision: 1
# Processed by: cddbd v1.5PL3 Copyright (c) Steve Scherf et al.
# Submitted via: CDex 1.50Beta5
#
DISCID=0810d912
DTITLE=DEAD END - All Leaves
DYEAR=1900
DGENRE=Rock
TTITLE0=Dead End
TTITLE1=Memory
TTITLE2=Dust
TTITLE3=Ki・Ra・I
TTITLE4=So That Night
TTITLE5=Vale Of Promises
TTITLE6=Float A Boat
TTITLE7=Yacht Harbour
TTITLE8=失した遊園地
TTITLE9=Peaches
TTITLE10=Night Shift
TTITLE11=Citron
TTITLE12=わたしの昼と夜
TTITLE13=Nostalgia
TTITLE14=Sweet Sultan
TTITLE15=僕には特別なクリスマス
TTITLE16=ジェリー・ビーンズ
TTITLE17=Midnight Hour
EXTD=
EXTT0=
EXTT1=
EXTT2=
EXTT3=
EXTT4=
EXTT5=
EXTT6=
EXTT7=
EXTT8=
EXTT9=
EXTT10=
EXTT11=
EXTT12=
EXTT13=
EXTT14=
EXTT15=
EXTT16=
EXTT17=
PLAYORDER=
